<?xml version="1.0" encoding="utf-8"?>
<!-- Generator: Adobe Illustrator 26.0.3, SVG Export Plug-In . SVG Version: 6.00 Build 0)  -->
<svg version="1.1" id="Layer_1" xmlns="http://www.w3.org/2000/svg" xmlns:xlink="http://www.w3.org/1999/xlink" x="0px" y="0px"
	 viewBox="0 0 375 45" style="enable-background:new 0 0 375 45;" xml:space="preserve">
<style type="text/css">
	.st0{fill-rule:evenodd;clip-rule:evenodd;fill:#FFFFFF;}
	.st1{fill-rule:evenodd;clip-rule:evenodd;fill:#D03731;}
	.st2{fill-rule:evenodd;clip-rule:evenodd;fill:#D03731;}
</style>
<g id="AOL_logo">
	<path class="st0" d="M0,44h9.5l3.4-8.5h16.7l2.7,6.3c0.3,0.7,0.6,1.5,0.9,2.2H43c-1.7-3.2-9.1-22-11.2-26.7L25,1h-7.5
		c-0.8,1.6-1.4,3.7-2.2,5.3l-13.1,32C1.7,39.5,0.1,42.9,0,44 M21.1,15.4l4,9.1c0.5,1.1,0.9,2.3,1.4,3.2H16.3
		C16.8,25.4,20.7,17.3,21.1,15.4z"/>
	<path class="st0" d="M71.6,29.4c0,7.9,4.8,15.3,11.4,15.3c4,0,5.5-0.3,8.4-3.5c0.3-0.3,0.5-0.6,0.7-0.9l0.8-0.9V44h8.7V15.8H93v3.4
		c-0.6-0.4-0.9-0.8-1.6-1.3c-3.1-2.5-3.5-2.8-7.9-2.8C77.3,15.1,71.6,22.5,71.6,29.4 M92.7,29.2c0,2.8-0.3,5.6-3.5,7.1
		c-6.2,2.9-10.9-4.9-6.9-10.3C86.2,20.9,92.7,25.2,92.7,29.2z"/>
	<path class="st0" d="M116,19v-3.2h-8.7V44h8.7V30.4c0-10.5,10-9.9,10-2.2V44h8.7V25.6c0-5-3.9-10.4-8.7-10.4
		C119.9,15.1,119.3,16.8,116,19"/>
	<path class="st0" d="M204.4,23.6c0,11.8,10.3,21.4,20.9,21.4c4.5,0,7.3,0,11.5-2.1c10.6-5.3,15.2-17.1,10.4-28.3
		c-1.1-2.5-2.6-4.3-4.4-6.1c-6.9-6.9-17.9-8.4-26.1-4.4C209.7,7.5,204.4,15,204.4,23.6 M209,24.1c0-5.2,1.6-9.7,5.3-13.2
		c11.7-11.1,30.2-1.9,30.2,11.2c0,4.6-0.4,8-3.3,11.8c-5,6.6-13.7,8.7-21.5,5.7c-2-0.8-3.9-2.1-5.3-3.5
		C211.1,32.9,209,29.2,209,24.1z"/>
	<path class="st0" d="M166.5,28.5c0,4.2,0.1,6.6,2.7,10.2c1,1.3,2.1,2.5,3.4,3.4c7.5,5.4,15.1,1.1,16.5,1v-8.5
		c-1.4,0.1-5.1,2-8.7,1.1c-8.1-1.9-4.9-17.6,7-11.4c0.7,0.4,1.1,0.8,1.9,1v-8.3c-3.4-1.8-5.9-1.9-9.7-1.9
		C172.7,15.1,166.5,21.9,166.5,28.5"/>
	<path class="st0" d="M342.7,28.5c0,4.9,1.8,9,4.4,11.6c4.1,4.1,7.2,4.7,13.1,4.7c6.4,0,11.1-3.9,13.8-9l-3.6-1.8
		c-1.6,3.1-4.2,5.4-7.6,6.4c-8.5,2.4-15.8-2.6-15.8-11.2H375c0-4.5-1.3-8.4-4.3-11.5c-3.8-3.9-7.5-4.8-12.9-4.8
		C349.6,12.9,342.7,20.3,342.7,28.5 M358.7,16.6c2.6,0,5.8,1.1,7.8,2.7c1.6,1.3,3.7,4,3.9,6.6h-23.1c1.6-3.3,2-6.2,7-8.3
		C355.2,17.1,357.6,16.6,358.7,16.6z"/>
	<polygon class="st0" points="139.1,15.8 135.9,15.8 135.9,23.6 139.1,23.6 139.1,44 147.8,44 147.8,23.6 151.9,23.6 151.9,15.8 
		147.8,15.8 147.8,6.1 139.1,6.1 	"/>
	<polygon class="st0" points="44.9,15.8 41.7,15.8 41.7,23.6 44.9,23.6 44.9,44 53.6,44 53.6,23.6 57.8,23.6 57.8,15.8 53.6,15.8 
		53.6,6.1 44.9,6.1 	"/>
	<rect x="60" y="0.3" class="st0" width="8.7" height="43.7"/>
	<path class="st0" d="M314.1,18.8v-5.1H310V44h4.1c0-6.4-0.8-18.2,2-22.5c4.7-7.2,16.5-6.7,16.9,2.8c0.3,7.1,0.2,12.5,0.2,19.7h4.1
		V28c0-3.9-0.6-8-2.2-10.4c-4-5.6-11.6-5.9-16.6-2.7c-1,0.7-1.4,1.1-2.3,1.8C315.1,17.5,315.1,18.1,314.1,18.8"/>
	<path class="st0" d="M259.2,18.8v-5.1h-4.1V44h4.1c0-6.4-0.8-18.2,2-22.5c2.7-4.1,8.1-6.2,13-4c1.2,0.5,2.1,1.5,2.7,2.7
		c1.4,2.7,1.4,6.1,1.4,9.2V44h4.1V28c0-3.9-0.6-8-2.2-10.4c-4-5.6-11.6-5.9-16.6-2.7c-1,0.7-1.4,1.1-2.3,1.8
		C260.2,17.5,260.3,18.1,259.2,18.8"/>
	<rect x="154.1" y="15.8" class="st0" width="8.7" height="28.2"/>
	<rect x="288.8" y="2" class="st0" width="4.1" height="42"/>
	<rect x="299.3" y="15.8" class="st0" width="4.1" height="28.2"/>
	<path class="st1" d="M160.2,0.3H160c-2.2-1.1-6.3,0.7-7.3,4.1c-1.8,6.5,6.5,10.5,10.5,5.4C166.2,6.1,163.8,1.1,160.2,0.3"/>
	<path class="st1" d="M301.5,12.2c3.2,0,5.8-2.6,5.8-6.6c0-2.9-2.6-5.6-6.3-5.6c-3,0-5.9,3.2-5.8,6.3
		C295.4,9.5,297.9,12.2,301.5,12.2"/>
	<path class="st2" d="M160.2,0.3H160H160.2z"/>
</g>
</svg>
