<?xml version="1.0" encoding="utf-8"?>
<!-- Generator: Adobe Illustrator 24.0.2, SVG Export Plug-In . SVG Version: 6.00 Build 0)  -->
<svg version="1.1" id="Capa_1" xmlns="http://www.w3.org/2000/svg" xmlns:xlink="http://www.w3.org/1999/xlink" x="0px" y="0px"
	 viewBox="0 0 612 241" style="enable-background:new 0 0 612 241;" xml:space="preserve">
<style type="text/css">
	.st0{fill-rule:evenodd;clip-rule:evenodd;fill:#FFFFFF;}
	.st1{fill-rule:evenodd;clip-rule:evenodd;fill:#E21E25;}
	.st2{fill-rule:evenodd;clip-rule:evenodd;fill:#E41E26;}
	.st3{fill-rule:evenodd;clip-rule:evenodd;fill:#E41E26;stroke:#FEFDFD;stroke-width:1.4398;stroke-miterlimit:10;}
	.st4{fill-rule:evenodd;clip-rule:evenodd;fill:#ECB64F;stroke:#FEFDFD;stroke-width:1.4398;stroke-miterlimit:10;}
</style>
<g id="Layer_x0020_1">
	<g id="_2157692771744">
		<path class="st0" d="M412,142.3v-13c5.7,0,12.3-1.1,12.3,7.2c0,2.9-1.6,4.1-3.9,5C419,142.1,414.2,142.3,412,142.3L412,142.3z
			 M450.6,128h2.4c2.4,0,5.5,3.5,5.5,5.8c0,4.3-2,8.2-5.5,8.2h-2.7C443.3,142,444.2,128,450.6,128L450.6,128z M412,120.8v-9.9
			c2.4,0,8.5-0.3,8.5,4.1c0,2.2-1.1,3.7-2.5,4.7C416.7,120.6,414.1,120.8,412,120.8L412,120.8z M401.1,150.5h19.5
			c7.1,0,13.3-4.4,14.7-10.2l0.5,0.9c0.1,0.3,0.3,0.7,0.4,1l2.1,3.7c3.9,4.8,6.3,5.4,12,5.4c3.8,0,6.7-3.7,8.5-5.8v5.1h9.9v-31.4
			h-9.9v3.8c-0.8-0.5-0.9-0.8-1.6-1.4c-3.9-3.5-5.3-3.3-9.6-3.3c-4.6,0-9,4.6-11,8.4c-0.8,1.4-1.2,3.3-1.6,4.9
			c-0.1-0.1-0.1-0.2-0.1-0.2c0,0.1-0.1-0.2-0.1-0.2c-1.6-2.5-2.8-5.6-7.9-6.8c0.6-2.2,4.8-2.9,4.8-9.6c0-5.1-2.7-8.9-6-10.7
			c-4.5-2.4-18-1.9-24.4-1.9L401.1,150.5L401.1,150.5z"/>
		<path class="st0" d="M193.7,118.8c0.1,1.2,0.8,2.5,1.2,3.5l2.8,6.7c0.5,1.1,0.9,2.4,1.4,3.4h-11.3c0.1-1.3,3.1-8.1,4-10.3
			C192.5,120.7,192.7,119.5,193.7,118.8L193.7,118.8z M169.5,150.5h10.9c0.3-1.3,1.2-3.2,1.7-4.4c0.6-1.5,1.3-2.8,1.7-4.4h19.5
			c0.1,1.7,2.8,6.3,3.4,8.9h10.9c-0.5-2.1-1.6-4.2-2.4-6.1l-7.7-18.3c-1.8-4.2-3.4-8-5.2-12.2c-0.9-2.2-1.7-4.1-2.5-6.1l-1.9-4.6
			c-0.9-1.9-0.9-1.2-8-1.2c-1.2,0-1.3,1.4-1.7,2.4l-3.8,9.2c-1.8,4-3.4,8.3-5.1,12.4c-1.7,4.1-3.3,7.9-5,12.1l-3.8,9.2
			C170.1,148.6,169.8,149.1,169.5,150.5z"/>
		<path class="st0" d="M510.4,102.4v48.2h9.9v-16.1l10.9,16.1h10.9c-0.3-1-0.7-1.4-1.2-2.2c-0.6-0.9-0.9-1.4-1.4-2.3l-8.6-12.9
			c1.6-3,8.2-10.5,10.6-14c-2.7,0-5.5,0-8.2,0c-5.1,0-3.2-0.5-9.3,7.1c-0.9,1.2-2.6,3.8-3.7,4.5v-26.3c0.1-3.8,1.1-3.1-8.9-3.1
			C510.7,101.3,510.4,101.6,510.4,102.4L510.4,102.4z"/>
		<path class="st0" d="M265.5,128h2.4c2.4,0,5.5,3.5,5.5,5.8c0,4.3-2,8.2-5.5,8.2h-2.7C258.2,142,259,128,265.5,128L265.5,128z
			 M249.4,134.5c0,7.9,5.4,16.7,13,16.7c5.9,0,6.7-0.6,11.3-5.8v5.1h9.9v-31.4h-9.9v3.8l-3.6-2.9
			C261.9,113.9,249.4,122.3,249.4,134.5L249.4,134.5z"/>
		<path class="st0" d="M484.8,122.5v-3.4h-9.9v31.4h9.9c0-5.4-0.8-17.2,1.2-21c2.9-5.5,9.7-2.7,9.7,1.8v19.1H506v-19.8
			c0-3.2-1.2-6.3-2.6-8.3c-3.5-5.1-9.5-5.3-14.6-2.7C486.9,120.6,486.3,121.6,484.8,122.5z"/>
		<path class="st0" d="M299.3,122.5v-3.4h-9.9v31.4h9.9c0-5.4-0.8-17.2,1.2-21c2.9-5.5,9.7-2.7,9.7,1.8v19.1h10.2v-19.8
			c0-5.9-4.2-12.6-9.6-12.6C303.8,118.1,304,119.3,299.3,122.5L299.3,122.5z"/>
		<path class="st0" d="M371,151.6c2.4,0,10.6-0.3,10.6-2.7v-8.6c-2.3,0.1-3,1-9.6,1c-4.3,0-7.4-7.5-4-11.5c4.4-5.3,11.3-1,13.6-0.4
			v-9.2c-6.4-3.4-16.5-3.1-21.8,3.2c-5.6,6.6-5.5,16,0.3,23C362.4,148.9,367.4,151.6,371,151.6L371,151.6z"/>
		<path class="st0" d="M325.3,119.1h-3.8v8.2c0,1.4,1.1,1,3.8,1v22.2h9.9v-22.2c6.1,0,4.8,1.7,4.8-9.2h-4.8v-10.9h-9.9V119.1
			L325.3,119.1z"/>
		<path class="st0" d="M219.7,119.1h-3.8v8.2c0,1.4,1.1,1,3.8,1v22.2h9.9v-22.2c6.1,0,4.8,1.7,4.8-9.2h-4.8v-10.9h-9.9V119.1
			L219.7,119.1z"/>
		<path class="st0" d="M236.4,102.4v48.2h9.9v-49.3h-8.9C236.7,101.3,236.4,101.6,236.4,102.4z"/>
		<polygon class="st0" points="342,150.5 351.9,150.5 351.9,119.1 342,119.1 		"/>
		<path class="st1" d="M340.3,106.1c0,8.3,8,9.3,11.5,5.7c4.6-4.6,0.4-11.5-3.7-11.5c-2.6,0-3.7-0.1-5.7,1.8
			C341.6,102.9,340.3,104.7,340.3,106.1L340.3,106.1z"/>
		<g>
			<path class="st2" d="M113.2,81.6c0,0.1-0.8,0.6-0.9,0.7c-1.8,1.3-3.8,3.2-5.5,4.6c-0.2,0.1-0.3,0.3-0.4,0.4
				c-0.8,0.7-2.2,2-3.1,2.8l-2.5,2.5c-0.3,0.3-0.5,0.6-0.8,0.9c-0.1,0.2-0.2,0.3-0.4,0.4l-1.3,1.3c-0.3,0.3-0.5,0.6-0.8,0.9
				l-1.6,1.8c-2.2,2.3-7.1,9-8.7,11.5c-3.7,5.8-6.6,11.2-9.2,17.7c-2,5-3.6,10.2-4.6,15.6c-0.3,1.4-0.9,4.6-0.8,6
				c1.1,0.5,15.7,1,16.4,0.6c0-0.8-0.2-1.8-0.2-2.7c-0.7-9.4,1.5-19,4.7-27.7c1.8-5,4-9.6,6.5-14.3c0.4-0.7,0.7-1.3,1.1-1.9
				c2.2-4.2,6.5-10.6,9.3-14.3c0.2-0.2,4.8-6.5,5.1-6.7c0.1-0.3,1.8-2.4,2-2.8c-0.3,0.1-0.7,0.4-1.1,0.6l-2.1,1.4
				C114,81,113.6,81.4,113.2,81.6L113.2,81.6z"/>
			<path class="st3" d="M141.7,143.6c-0.1,0.2-2.8,1.5-3.2,1.7c-9,4.2-17.7,6.2-27.8,7.1c-11,1-21.9,0.4-32.8-1.2l-4.3-0.6
				c0.3,0.1,1.8,0.8,2.2,0.9c11.8,5.2,24.7,8.7,37.8,9.5c12.3,0.8,26.8-0.5,38.2-5.5c0.8-0.3,3.8-1.7,4.2-2.1
				c-0.1-0.4-0.6-1.1-0.6-1.5c-0.2-0.2-0.7-1.2-0.9-1.6c-0.8-1.6-1.7-3.2-2.6-4.7c-0.6-1.1-1.2-2.1-1.8-3.1c-0.5-0.8-1.4-2.5-1.9-3
				l-3,2.1C144.3,142.1,142.4,143.3,141.7,143.6L141.7,143.6z"/>
			<path class="st4" d="M118.1,81.6c-0.3,0.5-0.8,1.3-1.2,1.7l-2.8,4.3c-0.4,0.7-2.5,3.8-2.6,4.5l4.3,2.4c2.5,1.5,5.6,3.5,7.9,5.3
				c1.3,1,2.4,2,3.6,3l1.7,1.6c0.6,0.5,1.1,1,1.7,1.6l7.7,8.8c7.4,9.7,12.9,20.8,17.4,32.1c0.6,1.6,1.2,3.2,1.9,4.8
				c0.1-1-0.4-5-0.5-6.2c-0.8-5.8-2.1-11.5-3.7-17c-2.1-7.1-4.9-13.5-8-19.5c-0.8-1.5-1.7-3-2.5-4.4c-2.5-4.3-6.9-10.4-10.2-14
				l-1.7-1.8c-0.3-0.3-0.5-0.6-0.8-0.9c-0.3-0.3-0.6-0.6-0.9-0.9l-6.3-5.8l-2.9-2.3C119.4,79.7,118.8,80.8,118.1,81.6L118.1,81.6z"
				/>
		</g>
	</g>
</g>
</svg>
